<svg viewBox="0 0 400 300" xmlns="http://www.w3.org/2000/svg" xmlns:xlink="http://www.w3.org/1999/xlink"><linearGradient id="a" gradientUnits="userSpaceOnUse" x1="180.75" x2="166.51" y1="120.74" y2="133.86"><stop offset="0" stop-color="#d4a397"/><stop offset="1" stop-color="#fff"/></linearGradient><linearGradient id="b" x1="77.29" x2="63.05" xlink:href="#a" y1="173.85" y2="186.96"/><linearGradient id="c" x1="228.29" x2="184.94" xlink:href="#a" y1="177.97" y2="232.16"/><path d="m198.14 274.81-172.5-101.94c-5.49-3.08-10.2-8.15-4.85-11.46l173.12-99.78c2.6-1.61 6.54-2.66 9.18-1.13l181.08 105.09c5.49 3.19 6.48 12.1 1 15.29l-164.3 93.77a22.94 22.94 0 0 1 -22.73.16z" fill="#ffa87d"/><path d="m197.11 101.18-48.33 26.6 24.42 14.16 21.61-11.75" fill="url(#a)"/><path d="m93.65 154.28-48.33 26.61 24.42 14.16 21.61-11.75" fill="url(#b)"/><path d="m149.95 185.77-45.94 22.57 101.84 59.04 90.1-48.99" fill="url(#c)"/><path d="m135.36 140.26s18.09-59.12 17.33-59.39l-5.49-2-16.7 60.65z" fill="#e29e14"/><path d="m128.48 137.24s15.82-44.7 15.52-45.39-5-3.33-5-3.33l-15 47.76" fill="#e29e14"/><path d="m133 141.95s18.09-59.12 17.33-59.39l-5.49-2-16.68 60.64z" fill="#fbc144"/><path d="m124.11 138.19s15.82-44.7 15.48-45.39-4.92-3.33-4.92-3.33l-15 47.76" fill="#fbc144"/><path d="m89.93 128.52s-3-61.75-3.82-61.75h-5.83l4.83 62.7z" fill="#e29e14"/><path d="m82.44 128s-.26-47.41-.82-47.95-5.75-1.47-5.75-1.47l2.07 50" fill="#e29e14"/><path d="m88.31 130.9s-3-61.75-3.82-61.75h-5.84l4.83 62.7z" fill="#fbc144"/><path d="m78.65 130.39s-.26-47.39-.82-47.95-5.75-1.44-5.75-1.44l2.07 50" fill="#fbc144"/><path d="m74.56 130c-.89-4.86-11.48-58-11.48-58l-6.57.48 13.68 58.89z" fill="#e29e14"/><path d="m70.63 122.71s-13.72-45.39-14.41-45.71-5.93.23-5.93.23l16.19 47.37" fill="#e29e14"/><path d="m76.32 127.69c-.9-4.9-11.49-58.07-11.49-58.07l-6.57.48 13.68 58.9z" fill="#fbc144"/><path d="m67.68 126.06s-13.68-45.38-14.41-45.74-5.93.23-5.93.23l16.19 47.37" fill="#fbc144"/><path d="m116.06 142.12c.53-4.95 5.49-58.94 5.49-58.94l-6.44-1.41-3.62 60.35z" fill="#e29e14"/><path d="m100.5 138s-3-61.75-3.82-61.75h-5.84l4.83 62.75z" fill="#e29e14"/><path d="m74.57 138.34-1.2-54.92-6.08-2.61 2.86 57.53" fill="#e29e14"/><path d="m128 141s6-47 5.51-47.64-5.51-2.23-5.51-2.23l-4.55 49.87" fill="#e29e14"/><path d="m114.37 136.09s-.26-47.41-.82-47.95-5.75-1.47-5.75-1.47l2.07 50" fill="#e29e14"/><path d="m93 137.49s-.26-47.41-.82-47.95-5.75-1.47-5.75-1.47l2.07 50" fill="#e29e14"/><path d="m119.86 141.43c.53-4.95 5.49-58.94 5.49-58.94l-6.44-1.41-3.62 60.35z" fill="#fbc144"/><path d="m98.87 140.38s-3-61.75-3.82-61.75h-5.83l4.78 62.7z" fill="#fbc144"/><path d="m79.36 133.54-1.21-54.91-6.07-2.62 2.86 57.53" fill="#fbc144"/><path d="m125.59 137c.64-1.21 11.85-47.67 11.85-47.67l4.08 3.62-11.06 44.05" fill="#fbc144"/><path d="m124.22 143.36s6-47 5.51-47.64-5.51-2.21-5.51-2.21l-4.55 49.85" fill="#fbc144"/><path d="m110.59 138.47s-.26-47.41-.82-47.95-5.77-1.46-5.77-1.46l2.07 50" fill="#fbc144"/><path d="m89.22 139.87s-.22-47.42-.82-47.95-5.75-1.47-5.75-1.47l2.07 50" fill="#fbc144"/><path d="m107.8 135.19s-3-61.75-3.82-61.75h-5.84l4.83 62.7z" fill="#e29e14"/><path d="m100.3 134.69s-.26-47.41-.82-47.95-5.75-1.47-5.75-1.47l2.07 50" fill="#e29e14"/><path d="m106.17 137.57s-3-61.75-3.82-61.75h-5.83l4.83 62.7z" fill="#fbc144"/><path d="m96.52 137.07s-.26-47.41-.82-47.95-5.75-1.47-5.75-1.47l2.07 50" fill="#fbc144"/><path d="m149.62 97.2a40.65 40.65 0 0 0 -5 2.83s-11.09 34.93-27.61 35.4-26.67-16.28-27.37-16.28-8.5 2.12-8.5 2.12l-24.26-11.56 12.51 67 17.93 8.73s42.95-17.7 45.31-19.59 16.99-68.65 16.99-68.65z" fill="#f74f3d"/><ellipse cx="238.56" cy="184.39" fill="#68e1fd" rx="87.52" ry="45.03"/><ellipse cx="238.56" cy="184.39" fill="#093e3e" opacity=".29" rx="87.52" ry="45.03"/><ellipse cx="238.56" cy="179.14" fill="#68e1fd" rx="87.52" ry="45.03"/><ellipse cx="239.23" cy="180.18" fill="#093e3e" opacity=".29" rx="75.36" ry="35.15"/><path d="m158.49 61.57 8.47 59.3a24.42 24.42 0 0 0 17.51 7.62c11 0 16.1-6.21 16.38-8.75s7.34-58.17 7.34-58.17z" fill="#68e1fd"/><path d="m170 61.6h-11.51l8.51 59.3a24.61 24.61 0 0 0 11 6.68c-3.83-21.86-7.19-43.8-8-65.98z" opacity=".33"/><path d="m157.36 54.49v4.34l51.95.74v-5.08" fill="#ebeae8"/><ellipse cx="183.33" cy="58.83" fill="#ebeae8" rx="25.98" ry="17.25"/><ellipse cx="183.33" cy="54.49" fill="#fffff2" rx="25.98" ry="17.25"/><ellipse cx="183.33" cy="53.59" fill="#ebeae8" rx="20.2" ry="12.01"/><ellipse cx="183.33" cy="53.59" fill="#fffff2" rx="16.04" ry="9.54"/><path d="m187.9 54.2c-1.08-.41-2.16-.84-3.23-1.28.85-.44 1.69-.88 2.54-1.31.39-.2.12-.83-.27-.63-1 .52-2.08 1.06-3.12 1.6q-2-.8-3.94-1.64a.34.34 0 0 0 -.26.63c1.13.48 2.27 1 3.4 1.42q-1.93 1-3.84 2.08c-.38.21-.11.84.27.63q2.19-1.21 4.4-2.36 1.89.76 3.78 1.49a.34.34 0 0 0 .27-.63z" fill="#606060"/><path d="m222.15 17-24.58-4.92c-6.69.26-8.66 7-8.66 7l-7.08 32.75c-.8.41 4.61 1.83 4.61 1.83s5.62-30.12 7.19-33.14a6.51 6.51 0 0 1 4.54-3.52s16.11 3.27 22.17 4.66a5 5 0 0 1 1.81-4.66z" fill="#ddd3c3"/><path d="m222.15 17s1.57.53 1.28 2.74-1.65 2.57-3.08 2c0-.05-.96-3.74 1.8-4.74z" fill="#968d7e"/><ellipse cx="237.92" cy="175.69" fill="#f48f3b" rx="56.25" ry="33.13"/><path d="m184.48 174.36c.45.61 10.26 24.27 52.11 24.35 49.22.1 53.38-18.75 54.28-22.23s.3-11 0-10.9-103.67.76-105 2.27-1.39 6.51-1.39 6.51z" fill="#67352a"/><g fill="#99ce45"><path d="m257.07 138.5c-.38-1-.75-2-1.12-3l6.73-.31a60.46 60.46 0 0 0 5.88 11.77 140.42 140.42 0 0 0 15.44 24.91 54.6 54.6 0 0 0 3.93 5.07c3.32 7.26 12.57 12.82 2.52 13.08-6.59.17-10.46-2.65-13-3.89q-4.86-10.1-9.32-20.37c-3.43-9.19-7.2-18.24-11.06-27.26z"/><path d="m250 135.75 3.1-.14 1.37 3.18 18.47 50.88c-.71 6 1.94 15.76-4.43 11.49-5.39-3.61-5.7-10.66-7.79-12.23q-2.08-7.15-3.73-14.41c-1.6-13.01-4.26-25.9-6.99-38.77z"/><path d="m244.57 138.1c0-.7-.06-1.4-.09-2.1l2.84-.13a1.16 1.16 0 0 0 -.47 1.15l8.15 55.42c-3.44 4.9-2.75 10.06-5.72 2.33-2.07-5.4-2.57-9.05-4.11-10.51q0-22.56-.09-45.12a1.28 1.28 0 0 0 -.51-1.04z"/><path d="m266.18 135 1.17-.05a1.08 1.08 0 0 0 .33 1.65c8.6 5.08 16 12.29 25.12 16.23a8.64 8.64 0 0 0 1 2.12c4.55 7.25 8.13 9.15 3.48 13.33-3.1 2.79-7.51 1.06-9.48 2.07-8.2-10.21-14.66-21.61-20.81-33.19-.26-.71-.53-1.43-.81-2.16z"/><path d="m273.95 134.66s20.64-2.12 23.14 7.28c1.22 4.58-.61 6.06-2.27 7.22-8.41-4.7-16.75-9.51-25.11-14.31z"/><path d="m239.8 136.87.26-.66h.51l-.45.94a1.34 1.34 0 0 0 -.32-.28z"/><path d="m242.11 138.92c.06 1 .11 1.93.19 2.89a177.69 177.69 0 0 1 -9.3 44.81c-1.66-.11-2.23-1.55-2.32-4.95-.16-6.11 6.47-14.54 1.52-15.82 2.13-4.57 3.17-9.61 4.84-14.36 1.5-4.28 3.21-8.49 5.07-12.57z"/><path d="m237.45 184.54a1.21 1.21 0 0 0 .19.84l-1 .4c.31-.72.63-1.44.93-2.17z"/></g><path d="m267.67 136.6a1.08 1.08 0 0 1 -.33-1.65l2.36-.11c8.35 4.8 16.7 9.61 25.11 14.31-1.35.94-2.6 1.68-2 3.68-9.18-3.93-16.53-11.14-25.14-16.23z" fill="#88b72c"/><path d="m268.56 146.94a60.46 60.46 0 0 1 -5.88-11.77l3.5-.16c.28.72.55 1.43.83 2.14 6.15 11.58 12.61 23 20.81 33.19-1 .5-1.36 1.68-.65 4.43a12.85 12.85 0 0 0 .78 2.16 54.6 54.6 0 0 1 -3.93-5.07 140.42 140.42 0 0 1 -15.46-24.92z" fill="#88b72c"/><path d="m253.06 135.61 2.89-.13c.37 1 .74 2 1.12 3 3.86 9 7.62 18.07 11 27.25q4.47 10.27 9.32 20.37c-1.73-.84-2.88-1-3.87 1a7.76 7.76 0 0 0 -.66 2.53l-18.43-50.83z" fill="#88b72c"/><path d="m247.32 135.87 2.64-.12c2.77 12.86 5.43 25.75 7 38.78q1.66 7.25 3.73 14.41c-.78-.59-1.81-.41-3.45 1a13.42 13.42 0 0 0 -2.24 2.5l-8.15-55.44a1.16 1.16 0 0 1 .47-1.13z" fill="#88b72c"/><path d="m239.25 136.24h.81l-.26.66a1.34 1.34 0 0 1 .33.26l.45-.94 3.9-.18c0 .7 0 1.4.09 2.1a1.28 1.28 0 0 1 .49 1q0 22.56.09 45.12c-1.05-1-2.59-1-5.47.27l-2 .86a1.21 1.21 0 0 1 -.19-.84l.1-.93c-.3.73-.62 1.45-.93 2.17a9.56 9.56 0 0 1 -3.63.85 177.69 177.69 0 0 0 9.3-44.81c-.08-1-.13-1.93-.19-2.89-1.86 4.12-3.58 8.3-5.08 12.57-1.67 4.75-2.71 9.8-4.84 14.36l-.22-.06c-5.4-1.1 7.25-29.57 7.25-29.57z" fill="#88b72c"/><path d="m189.69 162.2s-3.8 14.14-5.25 21.76a40.53 40.53 0 0 1 15.23-5.74c8.8-1.34 61 2.73 61 2.73s13 3.93 15.78 5.58c3.67 2.21 10.12 7.93 10.12 7.93s2.5-13.52 2.39-18.51c-.09-4-1.05-14.14-1.05-14.14" fill="#ffc31a"/><path d="m227.75 138.84 1.81-2.67-6.46-1.9a60.46 60.46 0 0 1 -8.52 10 140.42 140.42 0 0 1 -21 20.52 54.6 54.6 0 0 1 -5 4c-5 6.26-15.27 9.46-5.57 12.1 6.36 1.73 10.79-.08 13.58-.67q7.12-8.65 13.91-17.56c5.5-8.09 11.35-15.98 17.25-23.82z" fill="#99ce45"/><path d="m235.31 137.86-3-.88-2.09 2.76-30.07 45c-.73 6-5.64 14.85 1.56 12.22 6.1-2.22 8.07-9 10.48-10q3.72-6.45 7.06-13.1c4.65-12.28 10.31-24.17 16.06-36z" fill="#99ce45"/><path d="m240 141.43c.21-.67.39-1.34.59-2l-2.73-.8a1.16 1.16 0 0 1 .19 1.23l-21.11 51.87c2.17 5.58.28 10.42 5 3.62 3.3-4.75 4.65-8.18 6.49-9.23l10.85-43.8a1.28 1.28 0 0 1 .72-.89z" fill="#99ce45"/><path d="m219.74 133.28-1.12-.33a1.08 1.08 0 0 1 -.71 1.52c-9.57 2.88-18.43 8.13-28.27 9.77a8.64 8.64 0 0 1 -1.49 1.81c-6.15 6-10.08 6.95-6.56 12.11 2.35 3.45 7 2.82 8.71 4.27 10.4-8 19.39-17.49 28.12-27.27.45-.62.88-1.25 1.32-1.88z" fill="#99ce45"/><path d="m212.28 131.08s-19.54-7-24.21 1.55c-2.28 4.16-.86 6 .49 7.56 9.29-2.55 18.54-5.24 27.79-7.91z" fill="#99ce45"/><path d="m244.91 141.37c0-.24-.06-.47-.09-.7l-.49-.15c.07.34.14.68.21 1a1.34 1.34 0 0 1 .37-.15z" fill="#99ce45"/><path d="m242.18 142.81c-.29.92-.57 1.84-.87 2.76a177.69 177.69 0 0 0 -1.65 45.74c1.64.29 2.54-1 3.43-4.25 1.61-5.9-2.81-15.66 2.3-15.73-1-4.94-.78-10.09-1.27-15.1-.45-4.51-1.12-8.98-1.94-13.42z" fill="#99ce45"/><path d="m235.83 188.22a1.21 1.21 0 0 1 -.38.77l.89.63c-.13-.78-.27-1.55-.39-2.33z" fill="#99ce45"/><path d="m217.91 134.47a1.08 1.08 0 0 0 .71-1.52l-2.26-.67c-9.26 2.67-18.51 5.35-27.79 7.91 1.09 1.24 2.12 2.25 1.08 4.05 9.83-1.64 18.69-6.89 28.26-9.77z" fill="#88b72c"/><path d="m214.58 144.3a60.46 60.46 0 0 0 8.52-10l-3.36-1c-.44.63-.87 1.26-1.32 1.88-8.73 9.78-17.72 19.31-28.12 27.27.83.72.92 2-.42 4.46a12.85 12.85 0 0 1 -1.27 1.91 54.6 54.6 0 0 0 5-4 140.42 140.42 0 0 0 20.97-20.52z" fill="#88b72c"/><path d="m232.34 137-2.77-.82-1.81 2.67c-5.9 7.84-11.71 15.73-17.22 23.83q-6.79 8.91-13.91 17.56c1.88-.4 3-.25 3.52 1.91a7.76 7.76 0 0 1 0 2.62l30.07-45z" fill="#88b72c"/><path d="m237.85 138.61-2.54-.75c-5.75 11.83-11.41 23.72-16 36q-3.34 6.65-7.06 13.1c.9-.38 1.86 0 3.12 1.79a13.42 13.42 0 0 1 1.58 3l21.05-51.91a1.16 1.16 0 0 0 -.15-1.23z" fill="#88b72c"/><path d="m245.6 140.89-.78-.23c0 .24.06.47.09.7a1.34 1.34 0 0 0 -.38.17c-.07-.34-.14-.68-.21-1l-3.75-1.1c-.19.67-.38 1.35-.59 2a1.28 1.28 0 0 0 -.72.88l-10.85 43.8c1.26-.72 2.74-.33 5.25 1.56.64.49 1.23.92 1.78 1.32a1.21 1.21 0 0 0 .38-.77l.12-.93c.12.78.26 1.55.39 2.33a9.56 9.56 0 0 0 3.32 1.69 177.69 177.69 0 0 1 1.65-45.74c.31-.92.58-1.84.87-2.76.82 4.44 1.49 8.91 1.93 13.42.49 5 .3 10.16 1.27 15.1h.23c5.49.23 0-30.44 0-30.44z" fill="#88b72c"/><path d="m199.67 172.16v6.06s6.57 12 28.33 3.63l-.62-2.79" fill="#217738"/><path d="m199.67 172.16s0 6.28 10.59 9.12 17.12-2.22 17.12-2.22z" fill="#e0ffb2"/><path d="m179 161.81v5s.08 9.08 21.4 8.84v-3.17s-9.79-.82-14.1-2.84c-5.04-2.31-7.07-5.48-7.3-7.83z" fill="#c61424"/><ellipse cx="196.73" cy="162.11" fill="#ff2624" rx="17.74" ry="10.46"/><path d="m184.25 156.46s-3 1.83-3 5 1.43 4.68 3 4.68 5.94-5.63 7.42-4.35-4.85 5.67-3.6 7.27 12.5 2.91 14.55 1.31 4.45-9-1.54-11.07-16.83-2.84-16.83-2.84z" fill="#c61424"/><path d="m294.2 163.22v5s-1.61 10.42-26.7 7l1.35-2.28s13.73.14 18.05-1.88c5.03-2.31 7.1-5.49 7.3-7.84z" fill="#c61424"/><ellipse cx="276.46" cy="163.53" fill="#ff2624" rx="17.74" ry="10.46"/><path d="m288.94 157.88s3 1.83 3 5-1.43 4.68-3 4.68-5.94-5.63-7.42-4.35 4.85 5.67 3.6 7.27-12.5 2.91-14.55 1.31-4.45-9 1.54-11.07 16.83-2.84 16.83-2.84z" fill="#c61424"/><path d="m278.92 172.16v6.06s-6.57 12-28.33 3.63l.62-2.79" fill="#217738"/><path d="m278.92 172.16s0 6.28-10.59 9.12-17.12-2.22-17.12-2.22z" fill="#e0ffb2"/><path d="m217.45 180.38v5.47s4 6.84 20.19 6.84 19.85-7.06 19.85-7.27v-5" fill="#c61424"/><ellipse cx="237.47" cy="180.95" fill="#ff2624" rx="20.02" ry="9.35"/><path d="m219.8 180.38s4 5.93 9 6.15 6.12-6 8-4.39 1.31 5.8 5.33 5.37 12.62-3.88 12.87-6.51" fill="#c61424"/><ellipse cx="238.8" cy="146.82" fill="#f48f3b" rx="57.15" ry="36.94"/><path d="m278.05 173.39c-19.66 8.58-46.73 8.28-65.88-1.46-10.07-5.12-19.69-13.15-24-23.63a24.42 24.42 0 0 1 -.07-18.59 27.05 27.05 0 0 0 -6.5 17.1c0 20.4 25.59 36.94 57.15 36.94 16 0 30.43-4.25 40.81-11.09-.47.25-.98.5-1.51.73z" fill="#e27a2d"/><ellipse cx="233.48" cy="126.8" fill="#ffe5d2" rx="2.85" ry="1.01"/><ellipse cx="245.15" cy="136.18" fill="#ffe5d2" rx="2.85" ry="1.01"/><ellipse cx="213.84" cy="128.39" fill="#ffe5d2" rx="2.85" ry="1.01"/><ellipse cx="225.18" cy="138.92" fill="#ffe5d2" rx="2.85" ry="1.01"/><ellipse cx="262.68" cy="124.25" fill="#ffe5d2" rx="2.85" ry="1.01"/><ellipse cx="269.7" cy="141.8" fill="#ffe5d2" rx="2.85" ry="1.01"/><ellipse cx="249.97" cy="152.84" fill="#ffe5d2" rx="2.85" ry="1.01"/><ellipse cx="223.1" cy="151.04" fill="#ffe5d2" rx="2.85" ry="1.01"/></svg>